<?xml version="1.0" encoding="UTF-8"?>
<svg width="181px" height="58px" viewBox="0 0 181 58" version="1.1" xmlns="http://www.w3.org/2000/svg" xmlns:xlink="http://www.w3.org/1999/xlink">
    <!-- Generator: Sketch 41.2 (35397) - http://www.bohemiancoding.com/sketch -->
    <title>[ DNE ]</title>
    <desc>Created with Sketch.</desc>
    <defs></defs>
    <g id="Page-1" stroke="none" stroke-width="1" fill="none" fill-rule="evenodd">
        <g id="Desktop-HD" transform="translate(-68.000000, -57.000000)">
            <g id="[-DNE-]" transform="translate(61.000000, 49.000000)">
                <text font-family="Raleway-Black, Raleway" font-size="48" font-weight="700">
                    <tspan x="4.284" y="64" fill="#E67E22">[ </tspan>
                    <tspan x="32.892" y="64" fill="#000000">DNE </tspan>
                    <tspan x="142.908" y="64" fill="#E67E22">]</tspan>
                </text>
                <g id="winter-hat" stroke-width="1" fill-rule="evenodd" transform="translate(165.249807, 28.934344) rotate(22.000000) translate(-165.249807, -28.934344) translate(138.749807, 8.434344)">
                    <g id="Group" transform="translate(1.024739, 24.688469)" fill="#F5F7FA">
                        <rect id="Rectangle-path" x="0.0512369529" y="6.52816166" width="36.9418431" height="8.0084496"></rect>
                        <path d="M50.2122139,3.00893264 C50.2122139,4.61490734 48.9056716,5.91645893 47.2917076,5.91645893 C45.6777435,5.91645893 44.3712012,4.61490734 44.3712012,3.00893264 C44.3712012,1.40295795 45.6777435,0.101406355 47.2917076,0.101406355 C48.9056716,0.101406355 50.2122139,1.40295795 50.2122139,3.00893264 Z" id="Shape"></path>
                    </g>
                    <polygon id="Shape" fill="#ED5564" points="45.703362 11.5274746 36.5831844 3.77407114 25.5160026 1.73370182 16.8057206 3.46801574 9.63254715 7.65077286 3.07421718 15.9142686 3.07421718 29.1113774 3.58658671 31.2170386 35.8658671 31.2170386 35.2510236 21.9333581 39.0425581 22.0353766 43.7563578 25.5040045 45.703362 24.8918937 48.5726314 22.4434505"></polygon>
                    <path d="M49.8023183,23.6373726 C49.4020552,18.6296941 48.1131384,14.2827893 45.9499142,10.6802112 C44.7282203,8.64382061 43.2280023,6.85533488 41.4874831,5.36331481 C39.838268,3.94944089 37.9697588,2.79612212 35.9330899,1.93610645 C33.6770244,0.982845904 31.2352762,0.393893298 28.6767077,0.186693793 C26.2125177,-0.0141805668 23.6970907,0.142009705 21.1977522,0.65057176 C16.18934,1.66994027 11.5123285,4.08328911 8.02985526,7.44755208 C4.91075452,10.4610756 2.78923724,14.1943393 1.89423015,18.2439623 C1.08243187,21.9189735 1.25212866,25.8029186 2.39860671,29.8230583 L2.38251831,29.8230583 C1.06634346,29.8230583 2.84217094e-14,30.8846624 2.84217094e-14,32.1941714 L2.84217094e-14,38.3344589 C2.84217094e-14,39.6439679 1.06634346,40.7055721 2.38251831,40.7055721 L36.9706382,40.7055721 C38.2851735,40.7055721 39.351517,39.6439679 39.351517,38.3344589 L39.351517,32.1941714 C39.351517,30.8846624 38.2851735,29.8230583 36.9706382,29.8230583 L36.9001362,29.8230583 C37.9072497,26.7106789 37.3260177,24.2279575 36.7688671,22.8308146 C39.7598755,23.3879374 42.1535634,25.3971911 43.7610716,27.075701 C43.7370927,27.2621907 43.7226439,27.4526592 43.7226439,27.6455761 C43.7226439,30.0501514 45.6808178,31.9989081 48.0954104,31.9989081 C50.510003,31.9989081 52.4666398,30.0502534 52.4666398,27.6455761 C52.4666398,25.8443381 51.368222,24.2996765 49.8023183,23.6373726 Z M37.166056,32.1941714 L37.166056,38.3344589 C37.166056,38.4420884 37.0780309,38.5289061 36.9707407,38.5289061 L33.886891,38.5289061 L33.886891,37.4409812 C33.886891,36.8399904 33.3969632,36.3530562 32.7932895,36.3530562 C32.1896157,36.3530562 31.6996879,36.8399904 31.6996879,37.4409812 L31.6996879,38.5289061 L25.141358,38.5289061 L25.141358,37.4409812 C25.141358,36.8399904 24.6514302,36.3530562 24.049396,36.3530562 C23.4441851,36.3530562 22.9557945,36.8399904 22.9557945,37.4409812 L22.9557945,38.5289061 L16.3958249,38.5289061 L16.3958249,37.4409812 C16.3958249,36.8399904 15.9074343,36.3530562 15.303863,36.3530562 C14.7002917,36.3530562 14.2119011,36.8399904 14.2119011,37.4409812 L14.2119011,38.5289061 L7.65357108,38.5289061 L7.65357108,37.4409812 C7.65357108,36.8399904 7.16364334,36.3530562 6.55832998,36.3530562 C5.95629578,36.3530562 5.46636803,36.8399904 5.46636803,37.4409812 L5.46636803,38.5289061 L2.38251831,38.5289061 C2.27369102,38.5289061 2.18720305,38.4419864 2.18720305,38.3344589 L2.18720305,32.1941714 C2.18720305,32.0873581 2.27369102,31.9997242 2.38251831,31.9997242 L36.9706382,31.9997242 C37.0779284,31.9997242 37.166056,32.0873581 37.166056,32.1941714 Z M31.3330363,21.180972 L31.3330363,21.1817881 C30.9103314,21.3316532 30.607726,21.7332999 30.607726,22.2059515 C30.607726,22.8069423 31.0961166,23.2938764 31.6996879,23.2938764 C31.8277803,23.2938764 31.952696,23.2707182 32.0679792,23.2301149 L32.0679792,23.230931 C32.9085726,22.9320169 33.7203709,22.7662369 34.5017344,22.7072702 L34.3352143,22.8204087 C34.3480236,22.838772 35.0941361,23.9569964 35.2382144,25.8140386 L35.2382144,27.0462176 C35.1758078,27.8782802 34.98039,28.8116472 34.5753107,29.8230583 L4.67701154,29.8230583 C3.47611984,25.9375829 3.25682568,22.2075838 4.02855666,18.7110029 C4.83236198,15.0797576 6.74093848,11.7250843 9.55251503,9.00965883 C12.7388387,5.93074152 17.0299335,3.71979732 21.6348034,2.78336982 C26.2957265,1.83490413 31.0703957,2.24614057 35.0796872,3.93985115 C42.3280765,7.00203743 46.6848571,13.8149326 47.5783271,23.3241759 C46.4110468,23.4612887 45.3863078,24.05422 44.6866159,24.9205609 C41.8925624,22.2266612 37.234816,19.0856147 31.3330363,21.180972 Z M48.0955129,29.8222421 C46.8898049,29.8222421 45.9083098,28.8459254 45.9083098,27.6455761 C45.9083098,26.446043 46.8898049,25.4697263 48.0955129,25.4697263 C49.2995813,25.4697263 50.2810763,26.446043 50.2810763,27.6455761 C50.2810763,28.8459254 49.2995813,29.8222421 48.0955129,29.8222421 Z" id="Shape" fill="#000000"></path>
                </g>
            </g>
        </g>
    </g>
</svg>