<svg xmlns="http://www.w3.org/2000/svg" viewBox="0 0 65 70">
  <defs>
    <style>
      .cls-1 {
        fill: #fff;
      }
    </style>
  </defs>
  <g id="logo-devnaestrada-simbolo-branco" transform="translate(-416.2 -227.3)">
    <path id="XMLID_976_" class="cls-1" d="M513.741,262.3h0a35.081,35.081,0,0,0-35.151-35h-22.1a.584.584,0,0,0-.4.181.5.5,0,0,0,.073.723l13.272,11.064a7.009,7.009,0,0,0,4.485,1.627h4.684a21.405,21.405,0,1,1,0,42.81h-4.684a7.009,7.009,0,0,0-4.485,1.627L456.149,296.4a.514.514,0,0,0-.073.723.521.521,0,0,0,.4.181H478.59a35.069,35.069,0,0,0,35.151-35Z" transform="translate(-32.541 0)"/>
    <path id="XMLID_975_" class="cls-1" d="M455.835,265.413h0a2.326,2.326,0,0,0-.8-1.717l-37.965-32.469a.575.575,0,0,0-.345-.127.526.526,0,0,0-.527.524v13.5a5.119,5.119,0,0,0,1.743,3.851l16.668,14.734a1.039,1.039,0,0,1,.2.2,2.393,2.393,0,0,1,.581,1.5,2.173,2.173,0,0,1-.581,1.5,1.039,1.039,0,0,1-.2.2l-16.668,14.734A5.148,5.148,0,0,0,416.2,285.7v13.5a.526.526,0,0,0,.527.524.511.511,0,0,0,.345-.127l37.947-32.469a2.287,2.287,0,0,0,.817-1.717Z" transform="translate(0 -3.113)"/>
    <path id="XMLID_974_" class="cls-1" d="M428.946,369.453h0a2.309,2.309,0,0,0-.8-1.754l-11.075-9.473a.575.575,0,0,0-.345-.127.526.526,0,0,0-.527.524v10.829h0v10.829a.526.526,0,0,0,.527.524.511.511,0,0,0,.345-.127l11.075-9.473a2.309,2.309,0,0,0,.8-1.754Z" transform="translate(0 -107.153)"/>
  </g>
</svg>
