<svg xmlns="http://www.w3.org/2000/svg" viewBox="0 0 250 43">
  <defs>
    <style>
      .cls-1 {
        fill: #3cd52e;
      }
    </style>
  </defs>
  <g id="logo-devnaestrada-horizontal-preto-verde" transform="translate(-276.2 -365.6)">
    <g id="XMLID_152_" transform="translate(323.862 370.72)">
      <path id="XMLID_182_" d="M409.782,387.752a5.42,5.42,0,0,0-4.237-1.762c-4.55,0-7.846,3.681-7.846,9.869,0,6.266,3.06,9.908,7.846,9.908a4.979,4.979,0,0,0,4.237-1.8v1.292a.084.084,0,0,0,.078.078h4.158a.084.084,0,0,0,.078-.078V378.98a.209.209,0,0,0-.275-.2l-3.923,1.762a.215.215,0,0,0-.118.2Zm0,12.023a4.037,4.037,0,0,1-3.609,1.8c-2.667,0-4.2-2.31-4.2-5.757,0-3.72,1.53-5.757,4.2-5.757a4.412,4.412,0,0,1,3.609,1.8Z" transform="translate(-397.7 -378.735)"/>
      <path id="XMLID_181_" d="M498.272,411.188a13.769,13.769,0,0,0-.51,1.684c-.157-.587-.314-1.1-.51-1.684l-4.158-11.749c0-.039-.039-.039-.078-.039h-4.237c-.039,0-.078.039-.078.118l6.865,18.719c0,.039.039.039.079.039H499.8a.137.137,0,0,0,.078-.039l6.865-18.719c0-.039-.039-.118-.078-.118H502.43a.137.137,0,0,0-.078.039Z" transform="translate(-453.003 -391.284)"/>
      <path id="XMLID_178_" d="M453.348,398.1c-5.3,0-8.748,3.681-8.748,9.869s3.374,9.908,8.748,9.908a8.36,8.36,0,0,0,6.669-2.9.073.073,0,0,0,0-.117l-2.628-2.7a.074.074,0,0,0-.118,0,4.66,4.66,0,0,1-3.923,1.88,4.416,4.416,0,0,1-4.433-4.425H461.39a.084.084,0,0,0,.078-.078,19.844,19.844,0,0,0,.157-2.585C461.625,400.88,457.9,398.1,453.348,398.1Zm-4.393,7.911a4.077,4.077,0,0,1,4.393-4.151c1.961,0,3.766,1.253,3.962,4.151Z" transform="translate(-426.202 -390.493)"/>
      <path id="XMLID_177_" d="M720.839,399.988V390.12h4.276a.084.084,0,0,0,.078-.078v-3.6a.084.084,0,0,0-.078-.078h-4.276v-7.48a.209.209,0,0,0-.275-.2l-3.923,1.88a.215.215,0,0,0-.118.2v5.6h-2.746a.084.084,0,0,0-.078.078v3.6a.084.084,0,0,0,.078.078h2.746v10.73c0,2.976,1.294,4.856,4.393,4.856a8.541,8.541,0,0,0,3.923-.822c.039,0,.039-.039.039-.078l.51-3.681c0-.078-.078-.117-.118-.078a6.044,6.044,0,0,1-2.824.783C721.271,401.79,720.839,401.046,720.839,399.988Z" transform="translate(-589.74 -378.674)"/>
      <path id="XMLID_174_" d="M787.869,398.1a13.164,13.164,0,0,0-7.336,2.036.121.121,0,0,0-.039.078l1.255,3.368a.075.075,0,0,0,.118.039,9.361,9.361,0,0,1,5.61-1.723,3.6,3.6,0,0,1,3.609,3.6v.822a9.1,9.1,0,0,0-4.472-.979c-3.727,0-7.414,1.88-7.414,6.227,0,4.151,2.942,6.266,6.865,6.266a6.6,6.6,0,0,0,5.021-1.958v1.449a.084.084,0,0,0,.078.078h4.04a.084.084,0,0,0,.079-.078V405.267C795.362,398.883,791.2,398.1,787.869,398.1Zm3.256,14.137a5.841,5.841,0,0,1-4.237,1.8c-2.275,0-3.452-.979-3.452-2.467,0-1.8,1.726-2.545,3.883-2.545a9.068,9.068,0,0,1,3.766.783v2.428Z" transform="translate(-629.546 -390.493)"/>
      <path id="XMLID_169_" d="M837.682,387.752a5.42,5.42,0,0,0-4.237-1.762c-4.55,0-7.846,3.681-7.846,9.869,0,6.266,3.06,9.908,7.846,9.908a4.979,4.979,0,0,0,4.237-1.8v1.292a.084.084,0,0,0,.079.078h4.158a.084.084,0,0,0,.079-.078V378.98a.209.209,0,0,0-.275-.2l-3.923,1.762a.215.215,0,0,0-.118.2Zm0,12.023a4.037,4.037,0,0,1-3.609,1.8c-2.667,0-4.2-2.31-4.2-5.757,0-3.72,1.53-5.757,4.2-5.757a4.412,4.412,0,0,1,3.609,1.8Z" transform="translate(-657.744 -378.735)"/>
      <path id="XMLID_165_" d="M881.169,398.1a13.165,13.165,0,0,0-7.336,2.036.121.121,0,0,0-.039.078l1.255,3.368a.075.075,0,0,0,.118.039,9.36,9.36,0,0,1,5.61-1.723,3.6,3.6,0,0,1,3.609,3.6v.822a9.1,9.1,0,0,0-4.472-.979c-3.727,0-7.414,1.88-7.414,6.227,0,4.151,2.942,6.266,6.865,6.266a6.6,6.6,0,0,0,5.021-1.958v1.449a.084.084,0,0,0,.078.078H888.5a.084.084,0,0,0,.078-.078V405.267C888.662,398.883,884.5,398.1,881.169,398.1Zm3.256,14.137a5.841,5.841,0,0,1-4.237,1.8c-2.275,0-3.452-.979-3.452-2.467,0-1.8,1.726-2.545,3.884-2.545a9.069,9.069,0,0,1,3.766.783v2.428Z" transform="translate(-686.246 -390.493)"/>
      <path id="XMLID_162_" d="M638.948,398.1c-5.3,0-8.748,3.681-8.748,9.869s3.374,9.908,8.748,9.908a8.359,8.359,0,0,0,6.669-2.9.073.073,0,0,0,0-.117l-2.628-2.7a.074.074,0,0,0-.118,0,4.66,4.66,0,0,1-3.923,1.88,4.416,4.416,0,0,1-4.433-4.425H646.99a.084.084,0,0,0,.078-.078,19.828,19.828,0,0,0,.157-2.585C647.186,400.88,643.5,398.1,638.948,398.1Zm-4.393,7.911a4.077,4.077,0,0,1,4.393-4.151c1.961,0,3.766,1.253,3.962,4.151Z" transform="translate(-538.995 -390.493)"/>
      <path id="XMLID_161_" d="M752.815,400.689v-1.88a.084.084,0,0,0-.078-.078h-4.158a.084.084,0,0,0-.078.078v18.719a.084.084,0,0,0,.078.078h4.158a.084.084,0,0,0,.078-.078v-10.5c0-3.6,1.883-4.5,3.57-4.5a5.029,5.029,0,0,1,3.1.94.075.075,0,0,0,.118-.039l.588-3.8c0-.039,0-.078-.039-.078a5.28,5.28,0,0,0-3.491-1.253A3.932,3.932,0,0,0,752.815,400.689Z" transform="translate(-610.889 -390.614)"/>
      <path id="XMLID_160_" d="M683.749,405.832c-2-.666-3.687-1.332-3.687-2.467,0-.979.981-1.566,2.55-1.566a5.051,5.051,0,0,1,3.727,1.527.074.074,0,0,0,.118,0l2.864-2.35a.073.073,0,0,0,0-.117A8.636,8.636,0,0,0,682.612,398c-3.727,0-6.747,1.841-6.747,5.248,0,3.172,2.158,4.778,6.237,6.148,2.158.862,3.648,1.449,3.648,2.78,0,1.371-1.295,1.841-3.06,1.841a6.316,6.316,0,0,1-4.354-1.958.074.074,0,0,0-.118,0l-2.864,2.428a.074.074,0,0,0,0,.117c1.412,1.958,4.315,3.172,7.336,3.172,4.354,0,7.257-1.958,7.257-5.6C689.947,408.574,687.4,407.046,683.749,405.832Z" transform="translate(-566.419 -390.432)"/>
      <path id="XMLID_158_" d="M550.99,406.7c0-3.094-1.334-4.386-3.531-4.386-2.354,0-3.844,1.214-3.844,4.347v10.848a.084.084,0,0,1-.078.078h-4.158a.084.084,0,0,1-.078-.078V398.748a.084.084,0,0,1,.078-.078h4.158a.084.084,0,0,1,.078.078v1.684a6.1,6.1,0,0,1,5.021-2.232c3.609,0,6.708,1.958,6.708,7.754v11.553a.084.084,0,0,1-.078.078h-4.158a.084.084,0,0,1-.078-.078V406.7Z" transform="translate(-483.753 -390.553)"/>
      <path id="XMLID_153_" d="M596.125,415.918a6.7,6.7,0,0,1-5.06,1.958c-3.883,0-6.865-2.154-6.865-6.305,0-4.386,3.687-6.266,7.414-6.266a9.1,9.1,0,0,1,4.472,1.018V405.5a3.6,3.6,0,0,0-3.609-3.6,9.482,9.482,0,0,0-5.649,1.723.075.075,0,0,1-.118-.039l-1.255-3.368c0-.039,0-.078.039-.078a13.208,13.208,0,0,1,7.375-2.036c3.334,0,7.492.822,7.492,7.167v12.1a.084.084,0,0,1-.078.078H596.2a.084.084,0,0,1-.078-.078Zm0-3.642v-2.467a9.2,9.2,0,0,0-3.766-.783c-2.158,0-3.884.744-3.884,2.545,0,1.488,1.177,2.467,3.452,2.467A5.579,5.579,0,0,0,596.125,412.276Z" transform="translate(-511.04 -390.493)"/>
    </g>
    <g id="XMLID_148_" transform="translate(276.2 365.6)">
      <path id="XMLID_151_" d="M322.973,387.139h0A21.545,21.545,0,0,0,301.4,365.6H287.825a.28.28,0,0,0-.235.117.306.306,0,0,0,.039.431l8.159,6.814a4.441,4.441,0,0,0,2.746.979H301.4a13.158,13.158,0,1,1,0,26.317h-2.864a4.279,4.279,0,0,0-2.746.979l-8.159,6.814a.31.31,0,0,0-.039.431.339.339,0,0,0,.235.118H301.4a21.429,21.429,0,0,0,21.575-21.461Z" transform="translate(-283.079 -365.6)"/>
      <path id="XMLID_150_" class="cls-1" d="M300.521,387.808h0a1.313,1.313,0,0,0-.51-1.057l-23.3-19.972a.3.3,0,0,0-.2-.078.337.337,0,0,0-.314.313v8.3a3.293,3.293,0,0,0,1.059,2.389L287.5,386.79l.118.117a1.4,1.4,0,0,1,.353.94,1.477,1.477,0,0,1-.353.94l-.118.118-10.238,9.046a3.165,3.165,0,0,0-1.059,2.389v8.3a.337.337,0,0,0,.314.313.3.3,0,0,0,.2-.078l23.3-19.972a1.444,1.444,0,0,0,.51-1.1Z" transform="translate(-276.2 -366.269)"/>
      <path id="XMLID_149_" d="M284.067,409.771h0a1.313,1.313,0,0,0-.51-1.057l-6.747-5.835a.3.3,0,0,0-.2-.078.337.337,0,0,0-.314.313v6.657h0v6.658a.337.337,0,0,0,.314.313.3.3,0,0,0,.2-.078l6.786-5.835a1.286,1.286,0,0,0,.471-1.057Z" transform="translate(-276.261 -388.232)"/>
    </g>
  </g>
</svg>
