<?xml version="1.0" encoding="utf-8"?>
<!-- Generator: Adobe Illustrator 15.0.0, SVG Export Plug-In . SVG Version: 6.00 Build 0)  -->
<!DOCTYPE svg PUBLIC "-//W3C//DTD SVG 1.1//EN" "http://www.w3.org/Graphics/SVG/1.1/DTD/svg11.dtd">
<svg version="1.1" id="Layer_1" xmlns="http://www.w3.org/2000/svg" xmlns:xlink="http://www.w3.org/1999/xlink" x="0px" y="0px"
	 width="90px" height="68px" viewBox="0 0 90 68" enable-background="new 0 0 90 68" xml:space="preserve">
<path fill="#FF4338" d="M88.578,24.271c-0.212-1.449-0.512-2.683-0.918-3.771c-0.475-1.272-1.09-2.349-1.883-3.292
	c-1.484-1.766-3.508-2.967-6.37-3.781c-2.215-0.63-4.935-1.037-8.605-1.491c-2.755-0.34-5.897-0.603-9.339-0.779
	c-3.695-0.189-11.844-0.285-16.327-0.285c-4.485,0-12.871,0.096-16.567,0.286c-3.444,0.176-6.587,0.439-9.343,0.78
	c-3.669,0.454-6.387,0.862-8.601,1.491c-2.861,0.813-4.884,2.015-6.368,3.781c-0.792,0.943-1.408,2.02-1.882,3.292
	c-0.405,1.088-0.705,2.321-0.917,3.77C1.078,26.883,1,30.504,1,34.431c0,3.922,0.078,7.54,0.459,10.149
	c0.211,1.448,0.511,2.681,0.917,3.769c0.474,1.272,1.088,2.349,1.88,3.292c1.483,1.768,3.506,2.972,6.366,3.787
	c2.221,0.634,4.938,1.042,8.604,1.496c2.728,0.338,5.873,0.596,9.349,0.768c3.66,0.182,12.043,0.273,16.561,0.273
	c4.512,0,12.657-0.092,16.314-0.272c1.357-0.067,2.664-0.147,3.916-0.241l14.805,8.551V55.197c2.464-0.807,4.258-1.947,5.606-3.554
	c0.793-0.943,1.408-2.021,1.883-3.293c0.405-1.088,0.705-2.321,0.917-3.77C88.959,41.971,89,38.658,89,34.735
	C89,30.809,88.959,26.882,88.578,24.271z M84.338,43.926c-0.168,1.147-0.395,2.095-0.693,2.897
	c-0.307,0.819-0.672,1.468-1.153,2.041c-0.396,0.472-0.854,0.87-1.403,1.218c-0.623,0.396-1.364,0.73-2.266,1.026l-2.934,0.961
	v3.087v3.424l-8.412-4.858l-1.137-0.657l-1.31,0.098c-1.216,0.091-2.497,0.17-3.81,0.234c-3.527,0.175-11.617,0.268-16.101,0.268
	c-4.585,0-12.817-0.093-16.347-0.268c-3.371-0.168-6.411-0.417-9.035-0.742c-3.462-0.428-6.001-0.805-7.957-1.363
	c-1.084-0.31-1.964-0.67-2.689-1.102c-0.627-0.373-1.145-0.807-1.581-1.326c-0.48-0.573-0.847-1.222-1.152-2.041
	c-0.299-0.803-0.525-1.75-0.693-2.896c-0.365-2.501-0.415-6.222-0.415-9.532c0-3.314,0.049-7.04,0.415-9.542
	c0.167-1.147,0.394-2.095,0.693-2.897c0.305-0.819,0.671-1.467,1.151-2.039c0.436-0.519,0.953-0.952,1.58-1.324
	c0.725-0.431,1.605-0.79,2.69-1.099c1.95-0.555,4.49-0.932,7.957-1.361c2.653-0.328,5.693-0.582,9.035-0.753
	c3.563-0.183,11.783-0.28,16.346-0.28c4.464,0,12.543,0.097,16.104,0.28c3.341,0.171,6.381,0.424,9.033,0.752
	c3.469,0.429,6.011,0.806,7.962,1.36c1.085,0.309,1.966,0.668,2.692,1.099c0.627,0.373,1.145,0.806,1.58,1.325
	c0.48,0.572,0.848,1.22,1.152,2.04c0.299,0.802,0.525,1.75,0.693,2.897c0.365,2.502,0.415,6.228,0.415,9.542
	C84.753,37.704,84.703,41.426,84.338,43.926z"/>
<g>
	<path fill="#FFFFFF" d="M84.338,24.852c-0.168-1.147-0.395-2.095-0.693-2.897c-0.305-0.819-0.672-1.468-1.152-2.04
		c-0.436-0.519-0.953-0.952-1.58-1.325c-0.727-0.431-1.607-0.79-2.692-1.099c-1.951-0.555-4.493-0.932-7.962-1.36
		c-2.652-0.328-5.692-0.581-9.033-0.752c-3.562-0.183-11.641-0.28-16.104-0.28c-4.563,0-12.783,0.097-16.346,0.28
		c-3.342,0.171-6.382,0.425-9.035,0.753c-3.467,0.429-6.007,0.806-7.957,1.361c-1.085,0.309-1.965,0.668-2.69,1.099
		c-0.627,0.373-1.145,0.806-1.58,1.324c-0.48,0.572-0.846,1.22-1.151,2.039c-0.299,0.802-0.525,1.75-0.693,2.897
		c-0.365,2.502-0.415,6.227-0.415,9.542c0,3.31,0.049,7.031,0.415,9.532c0.167,1.146,0.394,2.094,0.693,2.896
		c0.305,0.819,0.671,1.468,1.152,2.041c0.436,0.52,0.953,0.953,1.581,1.326c0.726,0.432,1.605,0.792,2.689,1.102
		c1.956,0.559,4.495,0.936,7.957,1.363c2.624,0.325,5.664,0.574,9.035,0.742c3.529,0.175,11.761,0.268,16.347,0.268
		c4.483,0,12.573-0.093,16.101-0.268c1.313-0.064,2.594-0.144,3.81-0.234l1.31-0.098l1.137,0.657l8.412,4.858v-3.424v-3.087
		l2.934-0.961c0.901-0.296,1.643-0.631,2.266-1.026c0.549-0.348,1.008-0.746,1.403-1.218c0.481-0.573,0.847-1.222,1.153-2.041
		c0.299-0.803,0.525-1.75,0.693-2.897c0.365-2.5,0.415-6.222,0.415-9.532C84.753,31.08,84.703,27.354,84.338,24.852z"/>
</g>
<g>
	<circle fill="#FF4338" cx="16.499" cy="26.145" r="2.127"/>
	<path fill="#FF4338" d="M18.626,42.564c0,1.173-0.955,2.127-2.127,2.127c-1.173,0-2.127-0.954-2.127-2.127V32.491
		c0-1.173,0.954-2.127,2.127-2.127c1.173,0,2.127,0.955,2.127,2.127V42.564z"/>
	<path fill="#FF4338" d="M28.167,41.262c0.304,0,0.593-0.095,0.836-0.273h0.001c0.27-0.191,0.588-0.291,0.92-0.291
		c0.881,0,1.598,0.717,1.598,1.598c0,0.564-0.303,1.094-0.792,1.38c0,0,0,0.001,0,0.001c-1.122,0.664-2.408,1.016-3.719,1.016
		c-1.205,0-2.338-0.469-3.19-1.321c-0.853-0.853-1.322-1.985-1.322-3.19v-6.355h-0.258c-0.881,0-1.598-0.717-1.598-1.598
		c0-0.334,0.103-0.654,0.295-0.926l0,0l2.894-4.202l0,0c0.298-0.439,0.792-0.701,1.322-0.701c0.881,0,1.598,0.717,1.598,1.598v2.634
		h3.172c0.881,0,1.598,0.717,1.598,1.598s-0.717,1.598-1.598,1.598h-3.172v6.022C26.752,40.627,27.387,41.262,28.167,41.262z"/>
	<path fill="#FF4338" d="M52.73,42.564c0,1.173-0.955,2.127-2.128,2.127s-2.128-0.954-2.128-2.127V26.146
		c0-1.173,0.955-2.127,2.128-2.127s2.128,0.955,2.128,2.127V42.564z"/>
	<path fill="#FF4338" d="M67.025,44.697c-0.65,0-1.258-0.292-1.664-0.801l0,0l-5.221-6.348v5.021c0,1.172-0.954,2.127-2.127,2.127
		c-1.174,0-2.128-0.955-2.128-2.127V26.152c0-1.173,0.954-2.127,2.128-2.127c1.173,0,2.127,0.954,2.127,2.127V37.51l5.221-6.344l0,0
		c0.406-0.506,1.012-0.797,1.66-0.797c1.174,0,2.127,0.955,2.127,2.128c0,0.489-0.16,0.949-0.467,1.33l0,0l-3.053,3.71l3.044,3.687
		l0,0c0.31,0.378,0.479,0.856,0.479,1.347C69.152,43.742,68.199,44.697,67.025,44.697z"/>
	<circle fill="#FF4338" cx="73.742" cy="26.145" r="2.127"/>
	<path fill="#FF4338" d="M75.869,42.564c0,1.173-0.955,2.127-2.127,2.127c-1.174,0-2.128-0.954-2.128-2.127V32.491
		c0-1.173,0.954-2.127,2.128-2.127c1.172,0,2.127,0.955,2.127,2.127V42.564z"/>
	<path fill="#FF4338" d="M45.834,41.873L45.834,41.873c-0.328-0.146-0.54-0.475-0.54-0.834v-4.971c0-2.222-0.547-3.74-1.671-4.644
		c-0.901-0.724-2.183-1.061-4.034-1.061c-1.946,0-3.167,0.351-3.848,0.646c-0.556,0.24-0.989,0.543-1.286,0.901
		c-0.325,0.392-0.49,0.853-0.491,1.371l0,0l0,0v0l0,0c0,1.098,0.894,1.992,1.992,1.992c0.456,0,0.901-0.158,1.254-0.445
		c0.293-0.237,0.513-0.555,0.633-0.909l0,0c0.08-0.224,0.106-0.412,0.22-0.616c0-0.001,0.001-0.002,0.002-0.003
		c0.006-0.01,0.012-0.021,0.019-0.031c0.281-0.468,0.791-0.768,1.363-0.768c0.877,0,1.59,0.713,1.59,1.59v1.312
		c-0.083,0.027-1.16,0.379-2.369,0.807c-1.155,0.407-2.669,0.967-3.326,1.322h0h0h0c-1.226,0.67-1.987,1.953-1.987,3.348
		c0,2.103,1.71,3.813,3.813,3.813h0.037c1.45,0,2.814-0.563,3.841-1.584c0.188,0.387,0.478,0.714,0.841,0.947
		c0.375,0.24,0.811,0.368,1.259,0.368h2.14c0.735,0,1.334-0.599,1.334-1.334C46.619,42.566,46.311,42.089,45.834,41.873z
		 M41.053,40.968L41.053,40.968c0,0.002,0,0.003-0.001,0.003c0,0.002-0.001,0.002-0.001,0.002l-0.001,0.002
		c-0.497,0.316-1.039,0.542-1.611,0.672h0c-0.191,0.045-0.372,0.068-0.538,0.068c-0.464,0-0.833-0.131-1.099-0.391
		c-0.266-0.259-0.4-0.613-0.4-1.055c0-0.536,0.247-1.006,0.734-1.395c0.486-0.387,1.464-0.844,2.908-1.359l0.01-0.004V40.968z"/>
</g>
<path display="none" fill="#EF473D" d="M-1543.012-162.832h-0.001l-0.108-0.082c-0.176-0.137-0.358-0.263-0.53-0.405
	l-346.773-265.109c-5.595-4.404-9.312-9.966-9.312-17.154v166.603c0,6.376,2.915,12.069,7.482,15.826l130.108,97.662l0.052-0.003
	c5.679,4.313,12.737,6.903,20.419,6.903h211.105C-1535.257-158.592-1539.561-160.184-1543.012-162.832z"/>
</svg>
